# xmcd
#
# Track frame offsets:
#	150
#	8701
#	20776
#	34201
#	48105
#	57982
#	70283
#	89582
#	99900
#	113837
#	131119
#	165150
#
# Disc length: 2541 seconds
#
# Revision: 1
# Processed by: cddbd v1.5.2PL0 Copyright (c) Steve Scherf et al.
# Submitted via: audiograbber 1.83.01
#
DISCID=9809eb0c
DTITLE=Pony Pack - Claws and Fists
DYEAR=2008
DGENRE=rock
TTITLE0=I Don't Want To Know What Kind Of Hell You're Going To Go To
TTITLE1=Johnny Diesel
TTITLE2=King Of Clubs
TTITLE3=Medicinal Mother
TTITLE4=Painted Eye
TTITLE5=Thigh Bone
TTITLE6=Bread And Circus
TTITLE7=Mal De Ojo
TTITLE8=Samlee
TTITLE9=GSS
TTITLE10=Philanderopist
TTITLE11=Dying Bird
EXTD=
EXTT0=
EXTT1=
EXTT2=
EXTT3=
EXTT4=
EXTT5=
EXTT6=
EXTT7=
EXTT8=
EXTT9=
EXTT10=
EXTT11=
PLAYORDER=
